<svg width="20" height="16" viewBox="0 0 20 16" fill="none" xmlns="http://www.w3.org/2000/svg">
<path d="M18 7.33H20V9.33H18C16.62 9.33 15.26 8.98 14 8.33C11.5 9.63 8.5 9.63 6 8.33C4.74 8.98 3.37 9.33 2 9.33H0V7.33H2C3.39 7.33 4.78 6.86 6 6C8.44 7.71 11.56 7.71 14 6C15.22 6.86 16.61 7.33 18 7.33ZM18 1.33H20V3.33H18C16.62 3.33 15.26 2.98 14 2.33C11.5 3.63 8.5 3.63 6 2.33C4.74 2.98 3.37 3.33 2 3.33H0V1.33H2C3.39 1.33 4.78 0.86 6 0C8.44 1.71 11.56 1.71 14 0C15.22 0.86 16.61 1.33 18 1.33ZM18 13.33H20V15.33H18C16.62 15.33 15.26 14.98 14 14.33C11.5 15.63 8.5 15.63 6 14.33C4.74 14.98 3.37 15.33 2 15.33H0V13.33H2C3.39 13.33 4.78 12.86 6 12C8.44 13.71 11.56 13.71 14 12C15.22 12.86 16.61 13.33 18 13.33Z" fill="white"/>
</svg>
