<svg width="16" height="16" viewBox="0 0 16 16" fill="none" xmlns="http://www.w3.org/2000/svg">
<path d="M8.35984 2.86235C8.35984 2.86235 8.58109 2.7261 8.58359 2.42485C8.58609 2.09485 8.32234 1.9961 8.32234 1.9961C8.32234 1.9961 8.48609 1.9286 8.48859 1.72485C8.49109 1.50735 8.20734 1.4536 8.20734 1.4536C8.20734 1.4536 8.34734 1.28485 8.33734 1.00235C8.32734 0.711103 8.09484 0.378603 8.01609 0.371103C7.97734 0.367353 7.98859 1.4961 7.98859 1.4961L7.93359 2.80735L8.32109 3.2686L8.35984 2.86235Z" fill="#FFA72B"/>
<path d="M7.66273 2.84609C7.66273 2.84609 7.40523 2.68984 7.42273 2.40234C7.44398 2.05984 7.75523 1.98734 7.75523 1.98734C7.75523 1.98734 7.52898 1.91359 7.54273 1.71984C7.56148 1.47109 7.84773 1.44234 7.84773 1.44234C7.84773 1.44234 7.71023 1.29484 7.72773 1.01734C7.75523 0.564844 8.01398 0.371094 8.01398 0.371094L8.02398 2.96609L7.66273 2.84609Z" fill="#FFC020"/>
<path d="M6.36719 3.56839C6.36719 3.56839 6.70469 2.68714 7.98594 2.69339C9.40344 2.70089 9.63344 3.61089 9.63344 3.61089L7.52844 4.00214L6.36719 3.56839Z" fill="#8C1B0D"/>
<path d="M6.46328 4.16211L6.45703 4.72836L8.07328 4.88211L9.54203 4.83836L9.54703 4.17961L6.46328 4.16211Z" fill="#513630"/>
<path d="M5.95313 3.92191C5.95188 4.18566 6.15813 4.29316 6.40938 4.29941C6.66188 4.30691 9.47063 4.27316 9.73438 4.26816C9.99813 4.26316 10.0381 4.03441 10.0406 3.88691C10.0431 3.69066 9.91063 3.54566 9.70813 3.53691C9.50563 3.52941 6.47438 3.54816 6.31438 3.55191C6.15438 3.55441 5.95313 3.68191 5.95313 3.92191Z" fill="#D35113"/>
<path d="M3.10938 14.5517L3.13438 12.1005L3.43563 12.0492L3.42313 10.753L3.76188 10.7205V9.61047L4.00563 9.40922L3.99563 8.47797L4.22813 8.39297L4.23813 7.41922L4.95812 7.35547L4.77813 14.7967L3.10938 14.5517ZM11.1819 7.60922L11.7006 7.67297L11.6894 8.45672L11.9231 8.62547L11.9119 9.62047L12.1344 9.77922V10.7855L12.3781 11.018L12.3881 12.0555L12.6319 12.2667L12.6206 14.6592L10.9681 14.7017L11.1819 7.60922Z" fill="#A62714"/>
<path d="M11.2324 7.80156L11.7124 7.81406C11.7124 7.81406 12.0049 7.67656 11.9949 7.37656C11.9774 6.88531 11.3886 6.63281 11.3886 6.63281C11.3886 6.63281 11.5261 6.58531 11.5149 6.36281C11.5049 6.18906 11.3774 6.11031 11.2386 6.10531C11.1011 6.09906 10.9811 6.21906 10.9811 6.33906C10.9811 6.45906 11.2324 7.80156 11.2324 7.80156ZM4.98864 6.67406L4.90239 6.53406C4.90239 6.53406 4.97989 6.48281 4.97989 6.28156C4.97989 6.17906 4.89739 6.03906 4.71739 6.03906C4.53739 6.03906 4.44364 6.17031 4.44364 6.30906C4.44364 6.45906 4.56864 6.55906 4.56864 6.55906C4.56864 6.55906 3.94114 6.84406 3.95114 7.29031C3.95739 7.56656 4.20864 7.60781 4.20864 7.60781L4.86864 7.62531L4.98864 6.67406ZM4.70489 8.20531C4.70489 8.20531 4.01489 8.18531 3.95489 8.19156C3.89489 8.19781 3.78489 8.28906 3.78989 8.41781C3.79614 8.54656 3.87864 8.61406 3.98614 8.62156C4.09364 8.62906 4.72989 8.64156 4.72989 8.64156L4.70489 8.20531ZM4.62614 9.27531L3.67614 9.24156C3.67614 9.24156 3.48864 9.25406 3.48489 9.47031C3.48114 9.68781 3.69489 9.68531 3.69489 9.68531L4.67239 9.72031L4.62614 9.27531ZM4.60489 10.5141C4.60489 10.5141 3.38114 10.4791 3.26114 10.4791C3.14114 10.4791 3.07489 10.5691 3.07489 10.6941C3.07489 10.8191 3.15239 10.9091 3.28489 10.9153C3.41739 10.9228 4.59864 10.9503 4.59864 10.9503L4.60489 10.5141ZM4.62239 11.9266C4.62239 11.9266 3.07489 11.8928 3.00239 11.8928C2.92989 11.8928 2.82239 11.9478 2.80989 12.1053C2.79739 12.2628 2.87614 12.3316 3.01364 12.3391C3.10489 12.3441 4.69864 12.3866 4.69864 12.3866L4.62239 11.9266ZM11.2736 8.36531C11.2736 8.36531 11.8099 8.37156 11.9324 8.38406C12.0549 8.39656 12.1411 8.48531 12.1411 8.58156C12.1411 8.67781 12.0611 8.81156 11.9161 8.81156C11.7711 8.81156 11.1074 8.82406 11.1074 8.80531C11.1074 8.78656 11.2736 8.36531 11.2736 8.36531ZM11.2524 9.41656C11.2524 9.41656 12.0461 9.43781 12.1749 9.44531C12.3374 9.45531 12.4061 9.55031 12.4061 9.65781C12.4061 9.76531 12.3124 9.87906 12.1624 9.87281C12.0111 9.86656 11.0349 9.86156 11.0349 9.86156L11.2524 9.41656ZM11.2436 10.6353C11.2436 10.6353 12.2949 10.6378 12.3611 10.6428C12.4286 10.6478 12.6624 10.6778 12.6611 10.8641C12.6599 11.0428 12.4936 11.0878 12.3761 11.0878C12.2586 11.0878 11.1711 11.0828 11.1711 11.0828L11.2436 10.6353ZM11.2249 11.9816C11.2249 11.9816 12.6574 11.9816 12.7861 11.9891C12.9536 11.9991 13.0074 12.1041 13.0049 12.1991C13.0024 12.2803 12.9711 12.3941 12.7649 12.4003C12.5586 12.4053 11.1136 12.4003 11.1136 12.4003L11.2249 11.9816Z" fill="#503730"/>
<path d="M6.41969 4.70711C6.44344 4.70586 9.50469 4.71961 9.50469 4.71961C9.50469 4.71961 10.1822 4.94086 10.8897 6.11086C11.4847 7.09586 11.3872 8.35586 11.3872 9.81211C11.3872 11.2684 11.3309 14.4996 11.3309 14.4996L7.97594 14.9934L4.53969 14.5359C4.53969 14.5359 4.52344 11.2796 4.52344 9.76586C4.52344 8.25211 4.75969 6.72461 5.26219 5.93961C5.83219 5.04586 6.41969 4.70711 6.41969 4.70711Z" fill="#D55113"/>
<path d="M9.70845 5.01461H9.70595L9.05845 5.00461C8.96845 5.00336 8.89595 4.92836 8.8972 4.83836C8.89845 4.74836 8.97095 4.67711 9.06095 4.67711H9.06345L9.71095 4.68711C9.75438 4.68744 9.7959 4.70501 9.82638 4.73595C9.85685 4.7669 9.87378 4.80868 9.87345 4.85211C9.87312 4.89554 9.85555 4.93706 9.82461 4.96753C9.79366 4.99801 9.75188 5.01494 9.70845 5.01461ZM7.05095 4.95836H6.36595C6.27595 4.95836 6.2022 4.88461 6.2022 4.79461C6.2022 4.70461 6.27595 4.63086 6.36595 4.63086H7.05095C7.14095 4.63086 7.2147 4.70461 7.2147 4.79461C7.2147 4.88461 7.1422 4.95836 7.05095 4.95836ZM6.1972 5.83086H6.1947L5.52845 5.82211C5.43845 5.82086 5.36595 5.74586 5.3672 5.65586C5.36845 5.56586 5.44595 5.49211 5.53345 5.49461L6.0497 5.50211L6.06345 5.36086C6.0722 5.27586 6.13845 5.21086 6.2297 5.21336L7.1972 5.23211C7.2872 5.23336 7.3597 5.30836 7.3572 5.39961C7.35595 5.48961 7.2847 5.56336 7.1897 5.55961L6.37345 5.54336L6.3597 5.68336C6.3522 5.76711 6.28095 5.83086 6.1972 5.83086ZM10.5635 5.84961H10.561L9.8147 5.84086C9.77418 5.84041 9.73527 5.82495 9.70549 5.79748C9.6757 5.77 9.65716 5.73246 9.65345 5.69211L9.64345 5.57586L8.81345 5.55961C8.72345 5.55836 8.65095 5.48336 8.65345 5.39211C8.6547 5.30211 8.72845 5.22586 8.82095 5.23211L9.7972 5.25086C9.88095 5.25211 9.9497 5.31711 9.9572 5.39961L9.9672 5.51461L10.566 5.52211C10.6094 5.52244 10.6509 5.54001 10.6814 5.57095C10.7119 5.6019 10.7288 5.64368 10.7285 5.68711C10.7281 5.73054 10.7106 5.77206 10.6796 5.80253C10.6487 5.83301 10.6069 5.84994 10.5635 5.84961Z" fill="#FA8960"/>
<path d="M8.70469 5.33986H8.70344L7.34094 5.32486C7.25094 5.32361 7.17844 5.24986 7.17844 5.15861C7.17969 5.06861 7.25344 4.99486 7.34469 4.99611L8.70594 5.01111C8.79594 5.01236 8.86844 5.08611 8.86844 5.17736C8.86719 5.26736 8.79469 5.33986 8.70469 5.33986ZM5.73719 6.76111H5.73219L5.04719 6.74236C4.95719 6.73986 4.88594 6.66486 4.88844 6.57361C4.89094 6.48361 4.96469 6.41361 5.05719 6.41486L5.57969 6.42861L5.58344 6.29986C5.58594 6.20986 5.66094 6.13986 5.75219 6.14111L6.75719 6.16986C6.84719 6.17236 6.91844 6.24736 6.91594 6.33861C6.91344 6.42861 6.83719 6.49861 6.74719 6.49736L5.90594 6.47361L5.90219 6.60111C5.90058 6.64389 5.88253 6.68441 5.85179 6.71421C5.82105 6.74402 5.78 6.76082 5.73719 6.76111ZM5.40844 7.81236H5.40344L4.69969 7.79361C4.60969 7.79111 4.53844 7.71611 4.54094 7.62486C4.54344 7.53486 4.62094 7.46611 4.70969 7.46611L5.25219 7.48111L5.25594 7.38986C5.25969 7.29986 5.32969 7.23111 5.42469 7.23236L6.41094 7.26111C6.50094 7.26361 6.57219 7.33861 6.56969 7.42986C6.56719 7.51986 6.49219 7.58986 6.40094 7.58861L5.57719 7.56486L5.57344 7.65611C5.56844 7.74361 5.49594 7.81236 5.40844 7.81236ZM5.22969 8.92986H4.59094C4.50094 8.92986 4.42719 8.85611 4.42719 8.76611C4.42719 8.67611 4.50094 8.60236 4.59094 8.60236H5.06594V8.46611C5.06594 8.37611 5.13969 8.30236 5.22969 8.30236H6.26219C6.35219 8.30236 6.42594 8.37611 6.42594 8.46611C6.42594 8.55611 6.35219 8.62986 6.26219 8.62986H5.39344V8.76611C5.39344 8.85611 5.32094 8.92986 5.22969 8.92986ZM5.23969 10.0474H5.23844L4.52969 10.0399C4.43969 10.0386 4.36719 9.96486 4.36719 9.87486C4.36844 9.78361 4.44094 9.71236 4.53344 9.71236L5.07594 9.71861V9.59361C5.07594 9.54986 5.09344 9.50736 5.12469 9.47736C5.15594 9.44611 5.19719 9.43236 5.24219 9.42986L6.72594 9.44861C6.81594 9.44986 6.88844 9.52361 6.88719 9.61486C6.88594 9.70486 6.81344 9.77611 6.72344 9.77611H6.72094L5.40344 9.75986V9.88486C5.40344 9.92861 5.38594 9.97111 5.35469 10.0011C5.32344 10.0299 5.28219 10.0474 5.23969 10.0474ZM10.3672 6.82486C10.2772 6.82486 10.2047 6.75236 10.2034 6.66361L10.2022 6.53236L9.29219 6.51986C9.20219 6.51861 9.12969 6.44486 9.13094 6.35361C9.13219 6.26361 9.20469 6.19236 9.29469 6.19236H9.29719L10.3672 6.20736C10.4559 6.20861 10.5272 6.27986 10.5284 6.36861L10.5297 6.49736L11.0522 6.49361H11.0534C11.1434 6.49361 11.2159 6.56611 11.2172 6.65611C11.2184 6.74611 11.1447 6.81986 11.0547 6.82111L10.3684 6.82611C10.3684 6.82486 10.3684 6.82486 10.3672 6.82486ZM11.2759 7.86986H11.2734L10.5697 7.86111C10.5267 7.86045 10.4857 7.84291 10.4555 7.81227C10.4253 7.78163 10.4084 7.74036 10.4084 7.69736V7.60611L9.58469 7.59736C9.49469 7.59611 9.42219 7.52236 9.42219 7.43236C9.42344 7.34236 9.49594 7.26986 9.58594 7.26986H9.58719L10.5734 7.28111C10.6634 7.28236 10.7359 7.35486 10.7359 7.44486V7.53611L11.2784 7.54361C11.3684 7.54486 11.4409 7.61861 11.4397 7.70986C11.4384 7.79736 11.3659 7.86986 11.2759 7.86986ZM11.3047 8.98736H11.2997L10.6609 8.96861C10.5709 8.96611 10.4997 8.89111 10.5022 8.79986L10.5059 8.66361L9.63719 8.63861C9.54719 8.63611 9.47594 8.56111 9.47844 8.46986C9.48094 8.38111 9.55344 8.31111 9.64219 8.31111H9.64719L10.6797 8.34111C10.7697 8.34361 10.8409 8.41861 10.8384 8.50986L10.8347 8.64611L11.3097 8.65986C11.3997 8.66236 11.4709 8.73736 11.4684 8.82861C11.4659 8.91736 11.3934 8.98736 11.3047 8.98736ZM11.3634 10.1236H11.3584L10.6634 10.1049C10.5734 10.1024 10.5034 10.0286 10.5047 9.93861L10.5059 9.81361L9.18844 9.81111C9.09844 9.81111 9.02469 9.73736 9.02469 9.64736C9.02469 9.55736 9.09844 9.48361 9.18844 9.48361L10.6722 9.48611C10.7159 9.48611 10.7584 9.50361 10.7884 9.53486C10.8197 9.56611 10.8359 9.60861 10.8359 9.65236L10.8347 9.78236L11.3672 9.79736C11.4572 9.79986 11.5284 9.87486 11.5259 9.96611C11.5247 10.0536 11.4522 10.1236 11.3634 10.1236Z" fill="#FA8960"/>
<path d="M9.19283 6.26403H9.18908L6.86158 6.21653C6.77158 6.21528 6.69908 6.14028 6.70158 6.04903C6.70283 5.95903 6.77908 5.88278 6.86908 5.88903L9.19783 5.93653C9.28783 5.93778 9.36033 6.01278 9.35783 6.10403C9.35533 6.19278 9.28158 6.26403 9.19283 6.26403ZM9.60533 8.45153H9.60283L6.29783 8.39528C6.2544 8.39495 6.21288 8.37738 6.18241 8.34644C6.15193 8.31549 6.135 8.27371 6.13533 8.23028C6.13566 8.18685 6.15323 8.14533 6.18417 8.11486C6.21512 8.08438 6.2569 8.06745 6.30033 8.06778H6.30283L9.60783 8.12403C9.69783 8.12528 9.77033 8.20028 9.76908 8.29028C9.76783 8.38028 9.69533 8.45153 9.60533 8.45153ZM11.3053 13.0153H11.3028L4.55658 12.929C4.46658 12.9278 4.39408 12.854 4.39533 12.7628C4.39658 12.6728 4.46783 12.5953 4.56158 12.6015L11.3078 12.6878C11.3978 12.689 11.4703 12.7628 11.4691 12.854C11.4691 12.944 11.3953 13.0153 11.3053 13.0153ZM11.2578 14.4215L4.45158 14.3778C4.36158 14.3778 4.28783 14.304 4.28908 14.2128C4.28908 14.1228 4.36283 14.0503 4.45283 14.0503H4.45408L11.2591 14.094C11.3491 14.094 11.4228 14.1678 11.4216 14.259C11.4216 14.349 11.3478 14.4215 11.2578 14.4215Z" fill="#FA8960"/>
<path d="M7.65375 7.4668C7.63375 7.4968 5.76 11.1055 5.76 11.1055L5.6875 14.6568L10.13 14.7143L10.2062 11.4393L8.3725 7.4668H7.65375Z" fill="#EE6D33"/>
<path d="M7.34202 7.8859C7.30577 7.8959 6.92577 8.5109 6.95702 8.5634C6.97202 8.58965 7.44827 8.5959 7.96077 8.5959C8.48952 8.5959 8.98827 8.61215 8.99702 8.5959C9.01327 8.5634 8.70327 7.9234 8.67077 7.90715C8.63952 7.89215 7.37952 7.8759 7.34202 7.8859ZM6.73327 8.9109C6.68577 8.93715 6.14077 9.87715 6.17327 9.91965C6.20202 9.9584 7.03452 9.9509 7.88202 9.96215C8.76827 9.97465 9.66952 10.0046 9.68702 9.9884C9.71952 9.9559 9.21702 8.97465 9.16327 8.94715C9.13702 8.93465 8.56202 8.92465 7.98327 8.91465C7.37327 8.90715 6.75827 8.8984 6.73327 8.9109Z" fill="#FDBBA0"/>
<path d="M5.61391 11.3939L5.56641 14.5364L5.87016 14.5214L5.91641 11.2539L5.61391 11.3939ZM10.0164 11.4802V14.6139L10.3502 14.5289V11.4014L10.0164 11.4802Z" fill="#8B200D"/>
<path d="M5.95596 10.3524C5.87721 10.4024 5.34721 11.4037 5.38471 11.4524C5.40346 11.4762 6.64346 11.4812 7.90471 11.4949C9.20846 11.5099 10.5335 11.5324 10.5472 11.5162C10.5735 11.4837 9.94346 10.4437 9.90096 10.4162C9.85846 10.3887 5.99846 10.3249 5.95596 10.3524Z" fill="#FDBBA0"/>
<path d="M1.97039 14.3643C1.85539 14.4218 1.84414 15.4531 1.89914 15.5443C1.95414 15.6356 13.6991 15.6231 13.7891 15.5868C13.8791 15.5506 13.8241 14.4981 13.7704 14.4256C13.7566 14.4068 10.7741 14.4168 7.80414 14.4031C4.89414 14.3881 1.99789 14.3506 1.97039 14.3643Z" fill="#EE6D33"/>
<path d="M6.62563 12.1538C6.60813 12.1838 6.57812 14.5088 6.57812 14.5088L9.24563 14.5076C9.24563 14.5076 9.29437 12.2401 9.27812 12.2013C9.26187 12.1613 6.64938 12.1138 6.62563 12.1538Z" fill="#51362F"/>
<path d="M6.47687 14.4838C6.46937 14.5613 6.47687 14.9675 6.47687 14.9675C6.47687 14.9675 6.32812 14.96 6.32062 14.9813C6.30312 15.0288 6.31937 15.4 6.31937 15.4L9.43312 15.545C9.43312 15.545 9.44687 15.035 9.42062 15.0138C9.40187 14.9988 9.29687 15.0013 9.29687 15.0013C9.29687 15.0013 9.31812 14.5013 9.27937 14.5013C9.17312 14.5025 8.52437 14.5038 7.82687 14.4925C7.13312 14.4838 6.47812 14.4713 6.47687 14.4838Z" fill="#FA8960"/>
<path d="M6.32516 15.6099L9.43516 15.6274L9.43891 15.3137L6.31641 15.2899L6.32516 15.6099ZM6.47266 14.7324L9.30641 14.7587L9.30016 15.0024L6.47766 14.9687L6.47266 14.7324Z" fill="#D05314"/>
<path d="M9.55288 7.3527H9.54913L6.38663 7.2927C6.29663 7.29145 6.22413 7.21645 6.22663 7.1252C6.22788 7.0352 6.30413 6.95895 6.39413 6.9652L9.55663 7.0252C9.64663 7.02645 9.71913 7.10145 9.71788 7.1927C9.71627 7.23549 9.69821 7.276 9.66748 7.30581C9.63674 7.33561 9.59569 7.35241 9.55288 7.3527Z" fill="#FA8960"/>
<path d="M7.47906 7.29333C7.47906 7.29333 7.61906 6.96208 8.00656 6.95708C8.42281 6.95208 8.58906 7.31333 8.58906 7.31333C8.58906 7.31333 8.77906 7.36208 8.81031 7.49958C8.83031 7.58958 8.78406 7.65958 8.61531 7.65833C8.49781 7.65708 8.32406 7.65708 8.01656 7.65083C7.74031 7.64458 7.54156 7.64208 7.42406 7.63958C7.27781 7.63708 7.19656 7.57583 7.22406 7.46083C7.25906 7.30458 7.47906 7.29333 7.47906 7.29333Z" fill="#FDBBA0"/>
<path d="M8.02859 6.47656C7.84734 6.47656 7.77734 6.60656 7.77734 6.74781C7.77734 6.88906 7.87234 6.99906 8.04359 6.99906C8.21484 6.99906 8.28984 6.87906 8.29484 6.73281C8.29734 6.62156 8.17859 6.47656 8.02859 6.47656Z" fill="#FDBBA0"/>
</svg>
