<svg xmlns="http://www.w3.org/2000/svg" xmlns:xlink="http://www.w3.org/1999/xlink" version="1.1" x="0px" y="0px" viewBox="0 0 445.021 610" style="enable-background:new 0 0 445.021 488;" xml:space="preserve"><g><rect x="289.138" y="341.066" width="28.704" height="48.062"/><path d="M308.116,308.691c19.113-21.59,31.904-48.91,38.036-81.261c-3.714-5.874-6.258-12.451-7.593-19.639   c-10.291,5.975-22.264,10.153-35.069,10.153c-12.806,0-24.778-4.178-35.069-10.153c-1.335,7.187-3.879,13.764-7.593,19.639   c6.132,32.351,18.923,59.67,38.036,81.261H308.116z"/><path d="M212.819,112.852c3.56,3.312,8.989,3.59,12.92,0.658c12.829-9.571,39.99-25.627,77.75-25.627   c37.738,0,64.891,16.037,77.717,25.597c3.927,2.926,9.357,2.65,12.914-0.656c2.182-2.028,3.346-4.896,3.192-7.868   c-0.155-2.997-1.624-5.756-4.031-7.569C378.639,86.355,347.502,67.85,303.49,67.85c-44.037,0-75.183,18.522-89.829,29.564   c-2.403,1.812-3.873,4.567-4.031,7.56c-0.157,2.965,0.998,5.829,3.168,7.858C212.805,112.838,212.813,112.845,212.819,112.852z"/><path d="M246.663,223.081c-1.447,0.207-2.715,0.974-3.57,2.162c-0.867,1.204-1.197,2.674-0.93,4.141   c5.59,30.629,16.697,57.404,32.993,79.658c1.149-0.224,2.333-0.35,3.546-0.35h9.692c-17.902-22.147-29.923-49.448-35.733-81.328   C252.149,224.555,249.51,222.673,246.663,223.081z"/><path d="M385.738,82.659c-1.098-12.711-4.002-37.589-10.578-50.097C366.84,16.737,330,0,303.49,0s-63.35,16.737-71.67,32.562   c-6.581,12.518-9.482,37.388-10.579,50.097c17.857-10.799,45.89-22.809,82.249-22.809C339.853,59.85,367.888,71.865,385.738,82.659   z"/><path d="M278.702,410.732h49.576c5.776,0,10.476-4.699,10.476-10.475v-73.09c0-5.776-4.699-10.475-10.476-10.475h-49.576   c-5.776,0-10.476,4.699-10.476,10.475v73.09C268.227,406.033,272.926,410.732,278.702,410.732z M281.138,337.066   c0-2.209,1.791-4,4-4h36.704c2.209,0,4,1.791,4,4v56.062c0,2.209-1.791,4-4,4h-36.704c-2.209,0-4-1.791-4-4V337.066z"/><path d="M151.178,252.959c0-8.765-5.466-15.896-12.185-15.896c-1.265,0-2.521,0.267-3.719,0.774   c0.287,1.402,0.447,2.848,0.447,4.326v22.012c0,1.341-0.136,2.657-0.375,3.942c1.171,0.487,2.39,0.737,3.648,0.737   C145.712,268.855,151.178,261.724,151.178,252.959z"/><path d="M445.021,488c-0.176-26.384-1.87-174.666-17.677-203.766c-13.8-25.404-44.608-41.285-56.034-46.487   c-6.031,28.335-16.779,53.388-32.01,74.627c4.514,3.372,7.454,8.739,7.454,14.793v73.09c0,10.187-8.288,18.475-18.476,18.475   h-49.576c-10.188,0-18.476-8.288-18.476-18.475v-73.09c0-6.054,2.941-11.421,7.454-14.793   c-15.231-21.239-25.979-46.292-32.01-74.627c-11.427,5.202-42.235,21.083-56.035,46.487c-3.589,6.608-8.67,24.337-12.539,71.199   c2.947,12.873,5.338,23.926,6.372,30.103c3.848,22.978,1.253,50.178,1.141,51.325c-0.203,2.066-1.943,3.61-3.976,3.61   c-0.13,0-0.262-0.006-0.395-0.02c-2.198-0.215-3.806-2.171-3.591-4.37c0.026-0.271,2.601-27.31-1.069-49.224   c-2.419-14.444-12.74-57.442-19.777-86.206l-1.245,31.663c-0.295,7.502-6.493,13.405-13.935,13.405   c-0.185,0-0.37-0.003-0.556-0.011c-3.724-0.146-7.168-1.734-9.698-4.471c-2.53-2.737-3.842-6.295-3.696-10.02l1.8-45.766   l-13.654,3.77c-2.127,0.587-4.333-0.662-4.92-2.792c-0.588-2.129,0.662-4.332,2.792-4.92l14.984-4.137   c5.916-1.633,10.047-7.06,10.047-13.197v-22.012c0-7.104-5.502-13.096-12.526-13.642c-13.768-1.069-23.525,0.92-27.473,5.605   c-10.146,12.037-13.62,47.276-11.326,56.2c1.095,4.258,5.471,7.983,10.105,11.927c4.807,4.091,10.256,8.729,13.284,15.075   c3.241,6.792,4.721,32.395,6.609,70.68c1.057,21.448,2.151,43.627,3.613,48.953c3.361,12.243,19.146,29.047,31.279,33.296   c11.107,3.892,38.265-6.794,49.003-17.248c8.374-8.151,21.766-46.507,26.474-61.371v-68.274c0-2.209,1.791-4,4-4s4,1.791,4,4V488   h157.456V323.363c0-2.209,1.791-4,4-4s4,1.791,4,4V488H445.021z"/><path d="M124.24,138.794l3.059-77.772c-7.418-1.381-26.213-4.33-42.578-2.336c-9.405,1.146-17.257,3.273-24.85,5.331   c-9.709,2.631-18.879,5.115-29.786,5.115C18.511,69.131,7.41,64.086,0,59.745C3.937,73.087,12.431,96.02,26.241,105.08   c12.403,8.136,28.79,10.453,44.638,12.694c10.457,1.479,20.334,2.875,28.585,5.901C110.841,127.846,119.035,133.956,124.24,138.794   z"/><path d="M126.622,281.811l-1.956,49.721c-0.063,1.589,0.497,3.107,1.577,4.275c1.079,1.167,2.549,1.845,4.138,1.907   c1.592,0.065,3.106-0.498,4.274-1.577s1.845-2.549,1.908-4.138l2.169-55.156c-2.151-0.032-4.266-0.467-6.275-1.276   C130.949,278.004,128.968,280.129,126.622,281.811z"/><path d="M132.245,230.433c2.152-0.898,4.43-1.37,6.748-1.37c0.544,0,1.082,0.033,1.615,0.083l6.715-170.754   c0.063-1.589-0.497-3.107-1.577-4.275c-1.079-1.167-2.549-1.845-4.138-1.907c-1.595-0.067-3.107,0.497-4.274,1.577   c-1.168,1.079-1.845,2.549-1.908,4.138l-6.623,168.394C130.112,227.544,131.27,228.923,132.245,230.433z"/><path d="M376.427,119.894c-12.032-8.968-37.508-24.011-72.937-24.011c-35.444,0-60.924,15.056-72.961,24.035   c2.521,23.719,7.704,44.389,13.671,54.332c8.28,13.801,31.7,35.695,59.291,35.695c27.591,0,51.011-21.894,59.292-35.695   c5.966-9.944,11.15-30.616,13.671-54.338C376.444,119.905,376.435,119.9,376.427,119.894z"/><path d="M363.887,225.242c-0.855-1.188-2.123-1.955-3.57-2.162c-2.854-0.407-5.487,1.475-5.999,4.283   c-5.81,31.88-17.831,59.181-35.733,81.328h9.692c1.214,0,2.397,0.125,3.546,0.35c16.296-22.254,27.402-49.029,32.993-79.658   C365.084,227.917,364.754,226.446,363.887,225.242z"/></g></svg>
