<svg width="16" height="16" viewBox="0 0 16 16" fill="none" xmlns="http://www.w3.org/2000/svg">
<g clip-path="url(#clip0_29_22)">
<path d="M8 0.5C3.8625 0.5 0.5 3.8625 0.5 8C0.5 12.1375 3.8625 15.5 8 15.5C12.1375 15.5 15.5 12.1375 15.5 8C15.5 3.8625 12.1375 0.5 8 0.5ZM8 1.0625C11.8344 1.0625 14.9375 4.16563 14.9375 8C14.9375 9.45938 14.4875 10.8094 13.7219 11.9281C13.2031 11.325 12.9031 10.7781 12.5094 10.0469L14.0219 10.3188C13.2969 9.63125 12.6406 8.74688 12.2312 7.9875L13.2656 8.03438C12.3813 7.43438 11.8844 6.8875 11.4312 6.14687C11.35 6.29687 11.2781 6.43438 11.2094 6.57188C10.825 6.14063 10.475 5.68437 10.2188 5.20937C10.4562 5.25625 10.8219 5.49063 11.3 5.32188C10.775 4.825 10.2563 4.16562 9.95938 3.6125C10.125 3.70937 10.5062 3.74687 10.7812 3.6625C10.1375 3.22812 9.90625 2.79469 9.575 2.25719C9.28437 2.79469 8.86875 3.34375 8.36875 3.79688C8.57187 3.82188 8.9375 3.6875 9.15938 3.52813C9.0375 4.19375 8.54687 4.90312 7.96562 5.35938C8.29375 5.30625 8.58437 5.37187 8.9625 5.17812C8.52812 5.84687 8.0125 6.40313 7.37813 6.9875C7.94375 7.05938 8.69063 7.12187 9.40938 7.14687L9.4 8.00937C9.69062 8.075 10.0156 8.10625 10.2844 8.05313L11.1281 7.98438C10.8125 8.87813 10.1094 9.65938 9.30937 10.2875L10.8781 10.0375C10.3656 10.8281 9.75312 11.5781 9.04062 12.2844C8.75625 11.9281 8.5 11.5625 8.3 11.1906C8.74063 11.3094 9.14688 11.3156 9.53438 11.25C8.80938 10.5625 8.19375 9.825 7.78438 9.06563L9.17188 9.225C8.2875 8.625 7.75 7.75938 7.29688 7.01875C6.98438 7.6 6.54375 8.2875 6.0375 8.85938C5.43437 8.25 4.90938 7.59375 4.55625 6.9375L5.59062 6.98438C4.70625 6.38437 4.25 5.79063 3.79688 5.05C3.39687 5.79063 3.04719 6.40625 2.35875 7.02812C2.815 7.09375 3.12813 6.95 3.45312 6.82188C3.14062 7.71563 2.38156 8.575 1.58156 9.20312C2.21031 9.29375 2.74812 9.075 3.25312 8.85625C2.86781 9.65 2.40187 10.3469 1.75375 11.025C1.31094 10.1094 1.0625 9.08438 1.0625 8C1.0625 4.16563 4.16563 1.0625 8 1.0625ZM6.27187 2.23969C6.00937 2.66281 5.74687 2.82844 5.24062 3.17188L5.83437 3.14375C5.6 3.58125 5.22187 4.09062 4.80937 4.48125L5.675 4.325C5.40313 4.83125 5.20625 5.18437 4.77812 5.625C4.99687 5.71563 5.41563 5.7875 5.90625 5.82812L5.87187 6.7L6.41563 6.64062L6.39375 5.85625C6.9 5.87812 7.43125 5.86562 7.87187 5.80937C7.37187 5.34687 6.95312 4.85 6.60938 4.32188L7.50938 4.46562C7.05 4.10312 6.64687 3.59062 6.46562 3.07906L7.03125 3.19062C6.6375 2.83469 6.5 2.66281 6.27187 2.23969ZM10.9031 7.1375C10.7312 7.425 10.5312 7.69687 10.2344 7.98125L10.0656 7.1625C10.3688 7.16562 10.6562 7.15625 10.9031 7.1375ZM4.8125 8.86875L5.85313 9.05625C5.77188 9.14062 5.6875 9.22188 5.60313 9.3L6.8 9.14375C6.6125 9.67188 6.29063 10.1531 5.89062 10.5875C5.45312 10.0469 5.17188 9.53437 4.8125 8.86875ZM6.55 11.1719C5.95313 12.0938 5.48125 12.9344 4.60938 13.7406C5.33438 13.8313 6.25 13.9 7.14375 13.9281L7.13438 14.8844C4.94375 14.6125 3.07031 13.3187 2.00531 11.4969C2.52219 11.5344 3.06 11.5437 3.58125 11.5281L3.54688 12.7625L4.6375 12.8281L4.41563 11.4875C5.10313 11.3781 6.03438 11.4906 6.55 11.1719ZM13.2656 12.5188C13.0187 12.8063 12.7469 13.075 12.4563 13.3188L12.3219 12.6438C12.6656 12.6094 12.9875 12.5688 13.2656 12.5188ZM9.38125 12.6969C10.05 12.7406 10.7813 12.7406 11.475 12.7063L11.4594 14.0156C10.5063 14.5656 9.40938 14.8937 8.24063 14.9344L8.03438 13.9406C9.03125 13.9375 9.90312 13.8687 10.3125 13.7C10 13.3812 9.68125 13.0437 9.38125 12.6969Z" fill="white"/>
</g>
<defs>
<clipPath id="clip0_29_22">
<rect width="16" height="16" fill="white"/>
</clipPath>
</defs>
</svg>
